HIERARCHY
ROOT Hips
{
  OFFSET 34.5067 99.9285 1.64939
  CHANNELS 6 Xposition Yposition Zposition Zrotation Xrotation Yrotation
  JOINT spine
  {
    OFFSET 0 8.81705 0.507024
    CHANNELS 3 Zrotation Xrotation Yrotation
    JOINT spine1
    {
      OFFSET 0 10.7766 0
      CHANNELS 3 Zrotation Xrotation Yrotation
      JOINT spine2
      {
        OFFSET 0 10.3259 0
        CHANNELS 3 Zrotation Xrotation Yrotation
        JOINT Neck
        {
          OFFSET 0 26.511 1.26395
          CHANNELS 3 Zrotation Xrotation Yrotation
          JOINT Head
          {
            OFFSET 0 8.00966 0
            CHANNELS 3 Zrotation Xrotation Yrotation
            End Site
            {
              OFFSET 0 19.3879 -6.39386
            }
          }
        }
        JOINT RightShoulder
        {
          OFFSET -4.34795 11.1512 -0.605422
          CHANNELS 3 Zrotation Xrotation Yrotation
          JOINT RightArm
          {
            OFFSET 0 14.6258 0
            CHANNELS 3 Zrotation Xrotation Yrotation
            JOINT RightArmRoll
            {
              OFFSET 0 7.3834 0
              CHANNELS 3 Zrotation Xrotation Yrotation
              JOINT RightForeArm
              {
                OFFSET 0 21.5052 0
                CHANNELS 3 Zrotation Xrotation Yrotation
                JOINT RightForeArmRoll
                {
                  OFFSET 0 8.28532 0
                  CHANNELS 3 Zrotation Xrotation Yrotation
                  JOINT RightHand
                  {
                    OFFSET 0 16.6268 0
                    CHANNELS 3 Zrotation Xrotation Yrotation
                    End Site
                    {
                      OFFSET 0 0 0
                    }
                  }
                }
              }
            }
          }
        }
        JOINT LeftShoulder
        {
          OFFSET 4.34795 11.1512 -0.605422
          CHANNELS 3 Zrotation Xrotation Yrotation
          JOINT LeftArm
          {
            OFFSET 0 14.6258 0
            CHANNELS 3 Zrotation Xrotation Yrotation
            JOINT LeftArmRoll
            {
              OFFSET 0 7.3834 0
              CHANNELS 3 Zrotation Xrotation Yrotation
              JOINT LeftForeArm
              {
                OFFSET 0 21.5052 0
                CHANNELS 3 Zrotation Xrotation Yrotation
                JOINT LeftForeArmRoll
                {
                  OFFSET 0 8.28532 0
                  CHANNELS 3 Zrotation Xrotation Yrotation
                  JOINT LeftHand
                  {
                    OFFSET 0 16.6268 0
                    CHANNELS 3 Zrotation Xrotation Yrotation
                    End Site
                    {
                      OFFSET 0 0 0
                    }
                  }
                }
              }
            }
          }
        }
      }
    }
  }
  JOINT RightUpLeg
  {
    OFFSET -7.8151 -1.43309 -1.20217
    CHANNELS 3 Zrotation Xrotation Yrotation
    JOINT RightUpLegRoll
    {
      OFFSET 0 19.4959 0
      CHANNELS 3 Zrotation Xrotation Yrotation
      JOINT RightLeg
      {
        OFFSET 0 -24.1427 0
        CHANNELS 3 Zrotation Xrotation Yrotation
        JOINT RightLegRoll
        {
          OFFSET 0 24.2217 0
          CHANNELS 3 Zrotation Xrotation Yrotation
          JOINT RightFoot
          {
            OFFSET 0 20.1605 0
            CHANNELS 3 Zrotation Xrotation Yrotation
            JOINT RightToeBase
            {
              OFFSET 0 16.8532 0
              CHANNELS 3 Zrotation Xrotation Yrotation
              End Site
              {
                OFFSET 0.00714343 8.16187 -0.94078
              }
            }
          }
        }
      }
    }
  }
  JOINT LeftUpLeg
  {
    OFFSET 7.8151 -1.43309 -1.20217
    CHANNELS 3 Zrotation Xrotation Yrotation
    JOINT LeftUpLegRoll
    {
      OFFSET 0 19.496 0
      CHANNELS 3 Zrotation Xrotation Yrotation
      JOINT LeftLeg
      {
        OFFSET 0 24.1426 0
        CHANNELS 3 Zrotation Xrotation Yrotation
        JOINT LeftLegRoll
        {
          OFFSET 0 24.4456 0
          CHANNELS 3 Zrotation Xrotation Yrotation
          JOINT LeftFoot
          {
            OFFSET 0 19.9366 0
            CHANNELS 3 Zrotation Xrotation Yrotation
            JOINT LeftToeBase
            {
              OFFSET 0 16.8532 0
              CHANNELS 3 Zrotation Xrotation Yrotation
              End Site
              {
                OFFSET -0.0320138 8.16187 -0.94078
              }
            }
          }
        }
      }
    }
  }
}
MOTION
Frames: 13
Frame Time: 0.00208333
50.8722 99.2916 9.15967 -0.213355 7.79161 0.639192 0.320992 -1.61151 0.224288 0.636676 0.780875 0.4151 0.632065 2.42588 0.40462 -4.24332 11.7997 1.96276 -1.71782 3.29457 0.860225 64.407 -6.13682 -4.0962 113.048 21.4395 -2.95594 -3.49514e-006 -8.91308e-007 -2.03233e-007 20.2634 12.3434 -2.15175 1.63956e-005 -1.31099e-007 -3.00577 8.02943 -4.95137 0.697684 -65.3413 -2.03819 1.9323 -110.418 14.3162 -9.2986 1.17283e-014 1.59028e-015 -1.59028e-015 -7.38701 6.98459 1.21009 1.82734e-005 9.45919e-007 3.00074 -8.0292 -4.95142 -0.697651 177.341 18.572 -0.560482 180 7.01602e-015 179.197 177.887 17.0584 179.491 4.18653e-007 -4.00229e-006 0.199584 -19.075 69.6412 20.958 8.12515 25.2329 -3.48342 -176.269 20.3224 0.380191 4.54188e-006 -4.6773e-006 -0.907795 -3.94731 -20.9908 -0.0636184 -6.13802e-006 -3.0333e-006 -0.321341 20.1685 69.888 -21.2229 -8.20313 26.3884 2.90456 
50.7263 99.2457 9.08086 -0.281611 7.93301 0.635381 0.327568 -1.60683 0.226684 0.65049 0.790266 0.418162 0.645851 2.43526 0.407452 -4.15788 11.5708 1.94537 -1.74064 3.39062 0.869051 64.4468 -6.15589 -4.10858 113.073 21.5122 -2.70007 -3.49514e-006 -8.91308e-007 -2.03233e-007 20.0531 12.311 -2.14383 1.63956e-005 -1.31099e-007 -3.00577 8.02943 -4.95137 0.697684 -65.1973 -2.09002 1.94741 -110.586 14.3505 -9.31667 -3.37934e-015 -7.95139e-016 -3.18055e-015 -7.30248 7.02139 1.21173 1.82734e-005 9.45919e-007 3.00074 -8.0292 -4.95142 -0.697651 177.444 18.9515 -0.632033 180 7.01602e-015 179.197 177.899 17.4317 179.485 4.18653e-007 -4.00229e-006 0.21003 -19.2436 69.7756 21.0893 8.12508 25.2319 -3.4848 -176.12 20.7281 0.215244 4.54188e-006 -4.6773e-006 -0.907028 -4.00114 -21.4009 -0.0821968 -6.13802e-006 -3.0333e-006 -0.329432 20.2663 69.9946 -21.3296 -8.20517 26.4166 2.90793 
50.7856 99.1851 9.01895 -0.350695 8.0754 0.633366 0.334298 -1.60253 0.229299 0.664641 0.798904 0.421579 0.65997 2.4439 0.410635 -4.07161 11.3427 1.92637 -1.76243 3.4874 0.876563 64.4877 -6.17552 -4.12134 113.096 21.5812 -2.44636 -3.49514e-006 -8.91308e-007 -2.03233e-007 19.8455 12.283 -2.13682 1.63956e-005 -1.31099e-007 -3.00577 8.02943 -4.95137 0.697684 -65.0519 -2.13851 1.96038 -110.756 14.3836 -9.33258 -3.57812e-015 0 -3.18055e-015 -7.21911 7.06051 1.21361 1.82734e-005 9.45919e-007 3.00074 -8.0292 -4.95142 -0.697651 177.549 19.3299 -0.705988 180 7.01602e-015 179.197 177.913 17.8 179.478 4.18653e-007 -4.00229e-006 0.220468 -19.4147 69.9086 21.2213 8.12497 25.2304 -3.48686 -175.968 21.1344 0.050727 4.54188e-006 -4.6773e-006 -0.906393 -4.05386 -21.8082 -0.0998906 -6.13802e-006 -3.0333e-006 -0.337616 20.3632 70.0991 -21.4357 -8.20716 26.4438 2.91061 
50.7249 99.1308 8.94189 -0.420366 8.2185 0.632611 0.341137 -1.59849 0.232067 0.679028 0.807016 0.425247 0.674322 2.452 0.414063 -3.98481 11.1153 1.90625 -1.7835 3.5847 0.883156 64.5294 -6.19555 -4.13435 113.118 21.6476 -2.19409 -3.49514e-006 -8.91308e-007 -2.03233e-007 19.6397 12.2582 -2.13044 1.63956e-005 -1.31099e-007 -3.00577 8.02943 -4.95137 0.697684 -64.9055 -2.18466 1.97187 -110.928 14.4158 -9.347 4.67144e-015 1.98785e-015 -4.77083e-015 -7.13657 7.10124 1.21565 1.82734e-005 9.45919e-007 3.00074 -8.0292 -4.95142 -0.697651 177.656 19.7073 -0.781756 180 7.01602e-015 179.198 177.927 18.1646 179.47 4.18653e-007 -4.00229e-006 0.2309 -19.5882 70.0406 21.3544 8.12483 25.2286 -3.48939 -175.813 21.541 -0.113775 4.54188e-006 -4.6773e-006 -0.905852 -4.10586 -22.2136 -0.116993 -6.13802e-006 -3.0333e-006 -0.345864 20.4598 70.2023 -21.5415 -8.20912 26.4702 2.9128 
50.7262 99.0665 8.87186 -0.490376 8.36199 0.632577 0.348037 -1.5946 0.234922 0.69355 0.814826 0.429056 0.688808 2.45981 0.417632 -3.89778 10.8882 1.88552 -1.80417 3.68229 0.889225 64.5716 -6.2158 -4.14751 113.138 21.7123 -1.94256 -3.49514e-006 -8.91308e-007 -2.03233e-007 19.435 12.2351 -2.12443 1.63956e-005 -1.31099e-007 -3.00577 8.02943 -4.95137 0.697684 -64.7585 -2.22948 1.9825 -111.102 14.4474 -9.36055 -2.18663e-015 -1.59028e-015 -1.59028e-015 -7.05449 7.1429 1.21779 1.82734e-005 9.45919e-007 3.00074 -8.0292 -4.95142 -0.697651 177.766 20.0842 -0.858739 180 7.01602e-015 179.198 177.942 18.5272 179.463 4.18653e-007 -4.00229e-006 0.241329 -19.7638 70.1719 21.4888 8.12468 25.2265 -3.49219 -175.656 21.9478 -0.278683 4.54188e-006 -4.6773e-006 -0.905364 -4.15757 -22.6179 -0.1338 -6.13802e-006 -3.0333e-006 -0.354149 20.5567 70.3045 -21.6478 -8.21104 26.4962 2.91471 
50.7177 99.0134 8.80697 -0.560472 8.50558 0.632728 0.354952 -1.59076 0.237799 0.708104 0.822561 0.432901 0.703325 2.46754 0.421235 -3.81083 10.6612 1.86469 -1.82476 3.77996 0.895166 64.6138 -6.2361 -4.16071 113.158 21.7763 -1.69105 -3.49514e-006 -8.91308e-007 -2.03233e-007 19.2306 12.2125 -2.1185 1.63956e-005 -1.31099e-007 -3.00577 8.02943 -4.95137 0.697684 -64.6114 -2.27396 1.99293 -111.275 14.4789 -9.3739 -4.27387e-015 -2.38542e-015 -1.59028e-015 -6.97254 7.18479 1.21995 1.82734e-005 9.45919e-007 3.00074 -8.0292 -4.95142 -0.697651 177.876 20.461 -0.936337 180 7.01602e-015 179.198 177.957 18.8893 179.455 4.18653e-007 -4.00229e-006 0.251758 -19.9413 70.303 21.625 8.12453 25.2244 -3.49506 -175.496 22.3545 -0.44442 4.54188e-006 -4.6773e-006 -0.904888 -4.20938 -23.0219 -0.150613 -6.13802e-006 -3.0333e-006 -0.362444 20.6546 70.4065 -21.7549 -8.21297 26.522 2.91655 
50.6936 98.9475 8.74718 -0.630395 8.64898 0.632523 0.361836 -1.58683 0.240633 0.72259 0.830447 0.436675 0.717775 2.47542 0.424768 -3.72424 10.4341 1.84426 -1.84558 3.87748 0.901375 64.6559 -6.25629 -4.17384 113.177 21.8406 -1.43882 -3.49514e-006 -8.91308e-007 -2.03233e-007 19.0257 12.189 -2.1124 1.63956e-005 -1.31099e-007 -3.00577 8.02943 -4.95137 0.697684 -64.4646 -2.31911 2.00378 -111.449 14.5107 -9.38768 -8.54774e-015 -2.78299e-015 -1.59028e-015 -6.89036 7.22622 1.22207 1.82734e-005 9.45919e-007 3.00074 -8.0292 -4.95142 -0.697651 177.988 20.8379 -1.01394 180 7.01602e-015 179.198 177.971 19.2523 179.448 4.18653e-007 -4.00229e-006 0.262187 -20.1205 70.4342 21.7632 8.12438 25.2224 -3.49779 -175.333 22.7608 -0.611412 4.54188e-006 -4.6773e-006 -0.904387 -4.26175 -23.4265 -0.167736 -6.13802e-006 -3.0333e-006 -0.37072 20.7539 70.5088 -21.8637 -8.21491 26.5481 2.91854 
50.6865 98.8795 8.6804 -0.699882 8.79187 0.631422 0.368642 -1.58272 0.243357 0.736905 0.838709 0.440271 0.732057 2.48368 0.428127 -3.63828 10.2064 1.82471 -1.86696 3.97463 0.908248 64.6973 -6.2762 -4.18678 113.196 21.9062 -1.18516 -3.49514e-006 -8.91308e-007 -2.03233e-007 18.8194 12.1633 -2.10584 1.63956e-005 -1.31099e-007 -3.00577 8.02943 -4.95137 0.697684 -64.3184 -2.36593 2.0157 -111.62 14.5431 -9.40256 5.1684e-015 7.95139e-016 -1.59028e-015 -6.80759 7.26649 1.22407 1.82734e-005 9.45919e-007 3.00074 -8.0292 -4.95142 -0.697651 178.099 21.2154 -1.09095 180 7.01602e-015 179.199 177.986 19.618 179.44 4.18653e-007 -4.00229e-006 0.272621 -20.3013 70.566 21.904 8.12425 25.2207 -3.50018 -175.168 23.1666 -0.780092 4.54188e-006 -4.6773e-006 -0.903818 -4.3151 -23.8324 -0.185478 -6.13802e-006 -3.0333e-006 -0.37895 20.8556 70.612 -21.9745 -8.21688 26.5747 2.92087 
50.6728 98.8147 8.62174 -0.768664 8.93397 0.628885 0.375324 -1.5783 0.245906 0.750949 0.847573 0.443583 0.74607 2.49254 0.431205 -3.55323 9.97806 1.80656 -1.88921 4.07119 0.91618 64.7378 -6.29565 -4.19943 113.216 21.974 -0.92932 -3.49514e-006 -8.91308e-007 -2.03233e-007 18.611 12.134 -2.09857 1.63956e-005 -1.31099e-007 -3.00577 8.02943 -4.95137 0.697684 -64.1733 -2.41542 2.02933 -111.79 14.5765 -9.41916 2.98177e-016 -7.95139e-016 -3.18055e-015 -6.72389 7.30492 1.22588 1.82734e-005 9.45919e-007 3.00074 -8.0292 -4.95142 -0.697651 178.21 21.5938 -1.16673 180 7.01602e-015 179.199 178 19.9877 179.433 4.18653e-007 -4.00229e-006 0.283062 -20.4834 70.6986 22.0476 8.12415 25.2193 -3.50204 -175.001 23.5715 -0.950895 4.54188e-006 -4.6773e-006 -0.903144 -4.36988 -24.2406 -0.204151 -6.13802e-006 -3.0333e-006 -0.387106 20.9602 70.7167 -22.0882 -8.2189 26.6022 2.92377 
50.6609 98.7617 8.55499 -0.836466 9.07496 0.62437 0.381834 -1.57347 0.248214 0.764619 0.857265 0.446502 0.759715 2.50222 0.433897 -3.46936 9.74868 1.79031 -1.91267 4.16693 0.925569 64.777 -6.31449 -4.21168 113.236 22.0449 -0.670543 -3.49514e-006 -8.91308e-007 -2.03233e-007 18.3997 12.0998 -2.09031 1.63956e-005 -1.31099e-007 -3.00577 8.02943 -4.95137 0.697684 -64.0297 -2.46857 2.0453 -111.956 14.6114 -9.43816 6.36111e-015 2.38542e-015 -1.59028e-015 -6.63891 7.3408 1.22743 1.82734e-005 9.45919e-007 3.00074 -8.0292 -4.95142 -0.697651 178.32 21.9735 -1.24068 180 7.01602e-015 179.199 178.012 20.3631 179.426 4.18653e-007 -4.00229e-006 0.293511 -20.6669 70.8327 22.1946 8.12409 25.2185 -3.50315 -174.832 23.9754 -1.12426 4.54188e-006 -4.6773e-006 -0.902324 -4.42656 -24.6517 -0.224074 -6.13802e-006 -3.0333e-006 -0.39516 21.0684 70.8235 -22.2054 -8.221 26.6309 2.92744 
50.6347 98.6845 8.47799 -0.903008 9.21457 0.617334 0.388126 -1.56812 0.250217 0.777814 0.868011 0.448924 0.772891 2.51296 0.4361 -3.38691 9.51803 1.77644 -1.93766 4.26163 0.93681 64.8146 -6.33253 -4.22342 113.256 22.1201 -0.408073 -3.49514e-006 -8.91308e-007 -2.03233e-007 18.1847 12.0595 -2.08078 1.63956e-005 -1.31099e-007 -3.00577 8.02943 -4.95137 0.697684 -63.888 -2.5264 2.06426 -112.118 14.648 -9.46019 -1.02374e-014 -1.98785e-015 -3.18055e-015 -6.55228 7.37344 1.22864 1.82734e-005 9.45919e-007 3.00074 -8.0292 -4.95142 -0.697651 178.429 22.3549 -1.31216 180 7.01603e-015 179.2 178.023 20.7456 179.42 4.18653e-007 -4.00229e-006 0.303972 -20.8514 70.9684 22.3454 8.12408 25.2184 -3.50332 -174.661 24.378 -1.30063 4.54188e-006 -4.6773e-006 -0.901319 -4.48561 -25.0668 -0.24557 -6.13802e-006 -3.0333e-006 -0.403084 21.1811 70.9329 -22.3267 -8.22319 26.6611 2.9321 
50.6233 98.622 8.41687 -0.968005 9.35247 0.607233 0.394155 -1.56212 0.251848 0.790432 0.880036 0.45074 0.785497 2.52498 0.437706 -3.30614 9.28582 1.76545 -1.96451 4.35507 0.9503 64.8502 -6.34962 -4.23453 113.278 22.2003 -0.141141 -3.49514e-006 -8.91308e-007 -2.03233e-007 17.9652 12.0116 -2.06974 1.63956e-005 -1.31099e-007 -3.00577 8.02943 -4.95137 0.697684 -63.7485 -2.5899 2.08684 -112.275 14.6869 -9.48591 9.34288e-015 7.95139e-016 -1.59028e-015 -6.46367 7.40215 1.22945 1.82734e-005 9.45919e-007 3.00074 -8.0292 -4.95142 -0.697651 178.535 22.7382 -1.38053 180 7.01603e-015 179.2 178.033 21.1367 179.414 4.18653e-007 -4.00229e-006 0.314447 -21.0371 71.1062 22.5005 8.12414 25.2191 -3.50234 -174.487 24.7791 -1.48046 4.54188e-006 -4.6773e-006 -0.900088 -4.54752 -25.4865 -0.268969 -6.13802e-006 -3.0333e-006 -0.410852 21.2991 71.0455 -22.453 -8.22549 26.6932 2.93795 
50.6032 98.5493 8.36354 -1.03117 9.48838 0.593523 0.399873 -1.55536 0.253041 0.802373 0.893565 0.451845 0.797435 2.53851 0.438612 -3.22729 9.05179 1.75784 -1.99356 4.44703 0.966437 64.8835 -6.36557 -4.24491 113.3 22.2866 0.131033 -3.49514e-006 -8.91308e-007 -2.03233e-007 17.7403 11.9548 -2.05689 1.63956e-005 -1.31099e-007 -3.00577 8.02943 -4.95137 0.697684 -63.6118 -2.66007 2.11369 -112.426 14.7283 -9.51597 -1.0635e-014 -3.18055e-015 -3.18055e-015 -6.37271 7.42624 1.22978 1.82734e-005 9.45919e-007 3.00074 -8.0292 -4.95142 -0.697651 178.639 23.124 -1.44516 180 7.01603e-015 179.201 178.041 21.5381 179.408 4.18653e-007 -4.00229e-006 0.324938 -21.2239 71.2465 22.6604 8.12426 25.2208 -3.50001 -174.312 25.1783 -1.6642 4.54188e-006 -4.6773e-006 -0.898591 -4.61278 -25.9117 -0.294607 -6.13802e-006 -3.0333e-006 -0.418434 21.4231 71.1618 -22.585 -8.22793 26.7275 2.94521 
